<?xml version="1.0" encoding="UTF-8"?>
<svg width="1e3" height="132.22" version="1.1" viewBox="0 0 264.58 34.983" xmlns="http://www.w3.org/2000/svg">
 <g transform="translate(-114.67 -157.63)" fill="#00248b" stroke-width=".66134">
  <path d="m179.47 173.81c0-6.2788-4.6605-10.499-11.596-10.499h-6.9138v21.136h6.9138c6.8259-.0182 11.596-4.3875 11.596-10.637zm-14.33 6.88v-13.644h2.7114c4.5139 0 7.3278 2.5874 7.3278 6.7562 0 4.1689-2.9311 6.8874-7.3278 6.8874zm39.449-8.2394-2.898 2.2411c-1.07-1.556-2.3081-2.2812-3.8913-2.2812-2.5058 0-4.3232 1.8768-4.3232 4.4604 0 2.5837 1.8319 4.4968 4.3232 4.4968 1.5356 0 2.7704-.7288 3.8913-2.2521l2.898 2.212c-1.3961 2.4452-3.8874 3.8446-6.8515 3.8446-4.763 0-8.5075-3.6441-8.5075-8.3013 0-4.6572 3.7372-8.2356 8.5075-8.2356 2.9754 0 5.4706 1.3883 6.8515 3.8153zm15.755-9.7589c-.00053-.48001.14153-.94946.40937-1.349.26718-.39951.64812-.71115 1.0939-.89551.44508-.18436.93579-.23315 1.4093-.14022.47352.0929.90868.32344 1.2506.66235.34192.33891.57471.77101.66994 1.2417.0946.47064.047.9587-.1369 1.4024-.18385.44375-.49666.82325-.89743 1.0906-.40078.26725-.87231.41029-1.3551.41102-.32009.002-.63753-.0599-.93447-.18054-.29628-.12063-.56611-.2982-.79427-.52259-.2275-.22432-.40804-.49107-.53238-.78497-.12367-.29391-.18848-.60922-.1898-.92794zm4.5507 21.737h-4.1955v-15.794h4.181zm-38.442 0h-4.1949v-15.805h4.1803zm-4.5427-21.734c0-.48047.14351-.95014.41201-1.3495.26851-.39934.6501-.71041 1.0965-.89377.44641-.18337.93778-.23079 1.4113-.13625.47418.0945.90868.32677 1.2493.66728.34125.34052.57272.77399.66531 1.2455.0933.47151.043.95983-.14285 1.4031-.1865.44327-.5013.82159-.90405 1.0869-.40276.26539-.87562.40586-1.3584.40368-.64746 0-1.2678-.25568-1.7254-.71081-.45764-.45517-.71491-1.0725-.71491-1.7162zm26.516 16.216v-6.7926h-2.3339v-3.4801h2.3339v-4.0413h4.1803v4.0413h4.5507v3.4801h-4.5507v6.4027c0 1.8221.9272 2.5874 3.0924 2.5874.43582 0 1.0112-.0437 1.6745-.0948l.30421-.0255v3.4618c-.95828.24145-1.943.36387-2.9311.36446-4.1334 0-6.3204-2.0407-6.3204-5.9072zm27.758-10.633c-4.763 0-8.5075 3.615-8.5075 8.2357 0 4.6208 3.7227 8.2685 8.4784 8.2685s8.5736-3.6441 8.5736-8.2685c0-4.6244-3.759-8.2357-8.5445-8.2357zm0 12.696c-2.4655 0-4.2577-1.8621-4.2577-4.4276 0-2.5655 1.7922-4.4968 4.2577-4.4968 2.4661 0 4.2537 1.9424 4.2537 4.4932 0 2.5508-1.8319 4.4312-4.2537 4.4312zm107.2-12.711c-4.763 0-8.5075 3.6186-8.5075 8.2357s3.7154 8.2685 8.4784 8.2685c4.763 0 8.5736-3.6441 8.5736-8.2685 0-4.6244-3.7591-8.2357-8.5478-8.2357zm0 12.7c-2.4694 0-4.261-1.8621-4.261-4.4312 0-2.5691 1.7916-4.4968 4.261-4.4968s4.2617 1.935 4.2617 4.4968c0 2.5618-1.8326 4.4312-4.2689 4.4312zm-91.76-5.7723v9.2378h-4.1836v-15.79h3.8245v1.5961l.17592-.17486c.61702-.58661 1.3445-1.0458 2.1408-1.351.79625-.30527 1.6448-.4505 2.4979-.42729 3.6089 0 5.9395 2.4852 5.9395 6.3298v9.8172h-4.1512v-9.2378c0-1.9131-1.242-3.1995-3.0891-3.1995-1.8464 0-3.1546 1.3155-3.1546 3.1995zm29.905 9.2342v-15.794h-3.8252v2.2119l-.18319-.25144c-1.0991-1.494-2.894-2.3176-5.085-2.3176-4.4594 0-7.6947 3.4765-7.6947 8.2685 0 4.792 3.2353 8.2685 7.6947 8.2685 2.1322 0 3.9164-.80174 5.0196-2.2558l.18319-.24046v2.1099zm-8.2806-3.3854c-2.4694 0-4.261-1.8913-4.261-4.4968 0-2.6056 1.7916-4.526 4.261-4.526 2.0706 0 4.1625 1.3993 4.1625 4.526s-2.0918 4.4968-4.1625 4.4968zm15.88-4.4968v7.8822h-4.2141v-15.808h3.8477v2.1355l.17922-.23689c.50857-.66134 1.1659-1.195 1.9192-1.5582.75327-.36328 1.5819-.54594 2.4192-.53344.44904-.008.89677.0481 1.33.16758v3.6696h-1.0846c-2.7994 0-4.3966 1.5488-4.3966 4.2818zm10.332 14.084c-.91926-.0117-1.8332-.13405-2.7227-.3644v-3.4619l.26784.0219c.57867.0546 1.0991.0984 1.5131.0984 1.2678 0 2.5647-.26969 3.4403-2.2266l.50593-1.0932-6.1485-14.959h4.4264l3.9971 10.681 4.265-10.681h4.3966l-7.6358 17.244c-1.4907 3.3052-3.3781 4.7373-6.3198 4.7373zm16.755-8.7131c.009.33504-.0496.66842-.17128.98103-.12103.31269-.30356.59845-.53569.8411-.23213.24264-.51055.43741-.81874.57304-.30818.13571-.64017.20965-.97679.21772h-.0952c-.69639 0-1.365-.27532-1.8577-.7653-.4927-.48999-.76914-1.1546-.76914-1.8476 0-.69295.27644-1.3575.76914-1.8475.4927-.48999 1.1613-.76531 1.8577-.76531.6792-.005 1.3319.25826 1.8167.73164.4841.47346.75988 1.1185.76649 1.7938v.0948zm16.997-9.8172-2.902 2.2411c-1.07-1.556-2.3081-2.2812-3.8874-2.2812-2.488 0-4.3199 1.8768-4.3199 4.4604 0 2.5837 1.8319 4.4968 4.3271 4.4968 1.5317 0 2.7697-.7288 3.8874-2.2521l2.902 2.212c-1.3994 2.4452-3.8913 3.8446-6.8554 3.8446-4.763 0-8.5075-3.6441-8.5075-8.3013 0-4.6572 3.7372-8.2357 8.5075-8.2357 2.9754 0 5.456 1.3774 6.8554 3.8008zm35.848 3.0318v9.3035h-4.1843v-9.2196c0-1.946-1.1613-3.2032-2.9608-3.2032-1.7988 0-3.0594 1.2864-3.0594 3.2032v9.205h-4.1803v-15.794h3.8252v1.5706l.17194-.17856c.58595-.57854 1.2843-1.0321 2.0521-1.3329.76781-.30071 1.5899-.44244 2.4146-.41632 2.0812 0 3.7042.77986 4.6896 2.2521l.0774.10932.084-.10198c.66597-.73183 1.4827-1.3125 2.394-1.7024.91199-.38986 1.8974-.57986 2.8894-.55705 3.6856 0 5.9759 2.427 5.9759 6.3299v9.8391h-4.173v-9.2232c0-1.946-1.1613-3.2032-2.9608-3.2032-1.7988 0-3.0554 1.2755-3.0554 3.1048z"/>
  <path d="m130.93 157.76-15.817-.12754c-.0573-.00095-.11415.009-.16742.0302-.0533.0209-.10187.052-.14304.0916-.0412.0396-.0741.0869-.0969.13912-.0228.0522-.035.10845-.036.1654v27.225c.002.0829.025.16401.0673.23543.0423.0715.10241.13095.17447.17274l11.849 6.8691c.0885.052.19411.067.29371.0417.0995-.0253.18497-.0888.23761-.17658.036-.0607.055-.12989.055-.20039v-25.447c-.00013-.0875-.024-.17327-.0692-.24833-.0451-.0751-.10984-.13657-.18729-.17803l-6.291-3.4364c-.0541-.0278-.0963-.0741-.11879-.13033-.0225-.0562-.0239-.1187-.004-.17587.0201-.0572.0602-.10522.11299-.13533.0528-.0301.11479-.0403.17453-.0286l11.376 1.9423c.10317.0195.19622.0743.26314.15482.0669.0805.10344.18167.10324.2861v22.911c0 .11891.0475.23286.132.31692.0845.0841.1992.13134.3187.13134h.0513c8.427-.94023 14.168-6.84 14.289-15.025.11355-9.154-6.6976-15.276-16.568-15.404z"/>
 </g>
</svg>
